<svg width="471" height="114" viewBox="0 0 471 114" fill="none" xmlns="http://www.w3.org/2000/svg"> <path d="M7.11857 26.1015V46.871C7.11857 55.0783 11.2222 59.1819 19.4295 59.1819H29.228V49.2159H23.1144C21.607 49.2159 20.5182 48.8809 19.8483 48.2109C19.1783 47.5409 18.927 46.4522 18.927 44.9448V26.1015H28.7255V16.1355H18.927V4.07576H7.11857V16.1355H0V26.1015H7.11857Z" fill="white"></path> <path d="M71.223 20.3229C67.9569 17.2242 63.7695 15.633 58.7446 15.633C53.3847 15.633 49.1973 17.5592 46.0149 21.4116V0.55835H34.2064V59.1819H46.0149V37.0724C46.0149 33.3875 46.8524 30.5401 48.5273 28.4464C50.2023 26.4365 52.631 25.3477 55.6459 25.3477C58.4933 25.3477 60.6708 26.3527 62.1783 28.1952C63.602 30.0376 64.3557 32.8013 64.3557 36.3187V59.1819H76.1642V35.8162C76.1642 28.6139 74.4892 23.5053 71.223 20.3229Z" fill="white"></path> <path d="M84.6096 26.1015C82.7672 29.4514 81.9297 33.3038 81.9297 37.7424C81.9297 42.1811 82.8509 46.0335 84.6934 49.3834C86.5358 52.7333 89.2157 55.2458 92.7332 57.0045C96.2506 58.8469 100.354 59.6844 105.212 59.6844C108.897 59.6844 112.163 59.0982 115.01 57.7582C117.858 56.4182 120.119 54.6595 121.877 52.3146C123.552 50.0534 124.641 47.4572 125.144 44.6098H113.503C113 46.6197 111.911 48.2109 110.32 49.2159C108.729 50.2209 106.719 50.7234 104.374 50.7234C101.359 50.7234 98.9305 49.8859 97.2556 48.0434C95.4968 46.2847 94.4919 43.856 94.2406 40.6736V40.3386H125.479C125.646 39.1661 125.814 37.8262 125.814 36.3187C125.73 32.1313 124.725 28.5302 122.882 25.4315C121.04 22.3328 118.444 19.9041 115.094 18.2292C111.744 16.5542 107.975 15.633 103.62 15.633C99.2655 15.633 95.4968 16.5542 92.2307 18.3967C88.9645 20.2391 86.4521 22.7516 84.6096 26.1015ZM114.005 32.6338H94.4919C94.8269 30.1214 95.8318 28.1952 97.5905 26.6877C99.3492 25.1802 101.527 24.4265 104.123 24.4265C106.803 24.4265 108.98 25.1802 110.739 26.604C112.498 28.0277 113.586 30.0376 114.005 32.6338Z" fill="white"></path> <path d="M161.651 26.1015C159.809 29.4514 158.971 33.3038 158.971 37.7424C158.971 42.1811 159.892 46.0335 161.735 49.3834C163.577 52.7333 166.257 55.2458 169.775 57.0045C173.292 58.8469 177.396 59.6844 182.253 59.6844C185.938 59.6844 189.204 59.0982 192.052 57.7582C194.899 56.4182 197.16 54.6595 198.919 52.3146C200.594 50.0534 201.683 47.4572 202.185 44.6098H190.544C190.042 46.6197 188.953 48.2109 187.362 49.2159C185.771 50.2209 183.761 50.7234 181.416 50.7234C178.401 50.7234 175.972 49.8859 174.297 48.0434C172.538 46.2847 171.533 43.856 171.282 40.6736V40.3386H202.52C202.688 39.1661 202.855 37.8262 202.855 36.3187C202.771 32.1313 201.766 28.5302 199.924 25.4315C198.082 22.3328 195.485 19.9041 192.135 18.2292C188.786 16.5542 185.017 15.633 180.662 15.633C176.307 15.633 172.538 16.5542 169.272 18.3967C166.006 20.2391 163.494 22.7516 161.651 26.1015ZM191.047 32.6338H171.533C171.868 30.1214 172.873 28.1952 174.632 26.6877C176.391 25.1802 178.568 24.4265 181.164 24.4265C183.844 24.4265 186.022 25.1802 187.781 26.604C189.539 28.0277 190.628 30.0376 191.047 32.6338Z" fill="white"></path> <path d="M219.489 37.2399L203.493 59.1819H216.139L225.938 45.6985L235.82 59.1819H249.303L233.307 37.2399L248.466 16.1355H235.82L226.691 28.8652L217.73 16.1355H204.247L219.489 37.2399Z" fill="white"></path> <path d="M288.644 18.3967C285.63 16.5542 282.28 15.633 278.427 15.633C275.412 15.633 272.816 16.2192 270.555 17.3917C268.294 18.5642 266.451 20.1554 265.027 22.0816L263.855 16.1355H253.554V75.9315H265.363V53.7383C268.461 57.7582 272.816 59.6844 278.343 59.6844C282.196 59.6844 285.63 58.8469 288.644 57.0045C291.659 55.162 294.004 52.6496 295.679 49.2996C297.354 46.0335 298.275 42.1811 298.275 37.7424C298.275 33.3875 297.354 29.4514 295.679 26.1015C294.004 22.7516 291.659 20.2391 288.644 18.3967ZM283.368 46.6197C281.358 48.9647 278.846 50.0534 275.664 50.0534C272.481 50.0534 269.885 48.9647 268.042 46.6197C266.116 44.3585 265.195 41.3436 265.195 37.5749C265.195 33.89 266.116 30.9588 268.042 28.6977C269.885 26.4365 272.481 25.264 275.664 25.264C278.846 25.264 281.358 26.4365 283.368 28.6977C285.295 30.9588 286.299 33.89 286.299 37.5749C286.299 41.2598 285.295 44.2748 283.368 46.6197Z" fill="white"></path> <path d="M305.838 26.1015C303.996 29.4514 303.158 33.3038 303.158 37.7424C303.158 42.1811 304.08 46.0335 305.922 49.3834C307.764 52.7333 310.444 55.2458 313.962 57.0045C317.479 58.8469 321.583 59.6844 326.44 59.6844C330.125 59.6844 333.391 59.0982 336.239 57.7582C339.086 56.4182 341.347 54.6595 343.106 52.3146C344.781 50.0534 345.87 47.4572 346.372 44.6098H334.731C334.229 46.6197 333.14 48.2109 331.549 49.2159C329.958 50.2209 327.948 50.7234 325.603 50.7234C322.588 50.7234 320.159 49.8859 318.484 48.0434C316.726 46.2847 315.721 43.856 315.469 40.6736V40.3386H346.707C346.875 39.1661 347.042 37.8262 347.042 36.3187C346.959 32.1313 345.954 28.5302 344.111 25.4315C342.269 22.3328 339.672 19.9041 336.323 18.2292C332.973 16.5542 329.204 15.633 324.849 15.633C320.494 15.633 316.725 16.5542 313.459 18.3967C310.193 20.2391 307.681 22.7516 305.838 26.1015ZM335.234 32.6338H315.721C316.056 30.1214 317.061 28.1952 318.819 26.6877C320.578 25.1802 322.755 24.4265 325.352 24.4265C328.031 24.4265 330.209 25.1802 331.968 26.604C333.726 28.0277 334.815 30.0376 335.234 32.6338Z" fill="white"></path> <path d="M379.709 16.1355H377.699C374.516 16.1355 371.92 16.7217 370.078 17.8104C368.151 18.8991 366.56 20.4904 365.304 22.5841L364.215 16.1355H353.495V59.1819H365.304V38.0774C365.304 34.6438 366.058 31.8801 367.649 29.8701C369.156 27.8602 371.669 26.8552 375.019 26.8552H379.709V16.1355Z" fill="white"></path> <path d="M384.983 4.07576V46.871C384.983 55.0783 389.086 59.1819 397.294 59.1819H407.092V49.2159H400.979C399.471 49.2159 398.382 48.8809 397.712 48.2109C397.042 47.5409 396.791 46.4522 396.791 44.9448V26.1015H406.59V16.1355H396.791V4.07576H384.983Z" fill="white"></path> <path d="M421.685 44.861H410.462C410.63 49.4671 412.64 53.0683 416.408 55.7482C420.093 58.4282 424.951 59.6844 430.981 59.6844C434.833 59.6844 438.183 59.1819 441.114 58.0094C444.045 56.837 446.306 55.2458 447.981 53.0683C449.656 50.9746 450.494 48.5459 450.494 45.6985C450.494 41.3436 448.903 38.2449 445.804 36.4025C442.705 34.56 438.267 33.3038 432.488 32.6338C429.724 32.3826 427.798 32.1313 426.626 31.8801C425.453 31.7126 424.448 31.2938 423.778 30.7914C423.025 30.2889 422.69 29.5351 422.69 28.5302C422.69 27.1902 423.36 26.0177 424.699 25.1802C426.039 24.3428 427.882 23.924 430.143 23.924C432.488 23.924 434.498 24.5103 436.005 25.5152C437.513 26.5202 438.434 27.8602 438.602 29.4514H449.824C449.489 25.0965 447.563 21.7466 443.962 19.2341C440.36 16.8054 435.67 15.5492 429.808 15.4655C426.123 15.4655 422.941 16.0517 420.177 17.2242C417.33 18.3967 415.152 20.0716 413.645 22.2491C412.137 24.4265 411.384 26.8552 411.384 29.6189C411.384 32.4663 412.137 34.6438 413.645 36.3187C415.152 37.9937 417.162 39.2499 419.675 40.0036C422.187 40.8411 425.286 41.4273 429.138 41.9298C431.902 42.2648 433.912 42.5998 435.168 42.8511C436.34 43.1023 437.345 43.521 438.015 44.0235C438.685 44.6098 439.02 45.4472 439.02 46.536C439.02 48.0434 438.267 49.2159 436.843 50.0534C435.335 50.8909 433.409 51.2258 430.897 51.2258C428.217 51.2258 426.123 50.6396 424.448 49.4671C422.773 48.2947 421.852 46.7872 421.685 44.861Z" fill="white"></path> <path d="M457.962 47.7084C456.623 49.0484 455.953 50.7234 455.953 52.7333C455.953 54.7433 456.623 56.4182 457.962 57.7582C459.302 59.0982 460.977 59.6844 463.071 59.6844C465.081 59.6844 466.756 59.0982 468.096 57.7582C469.436 56.4182 470.19 54.7433 470.19 52.7333C470.19 50.7234 469.436 49.0484 468.096 47.7084C466.756 46.3685 465.081 45.6985 463.071 45.6985C460.977 45.6985 459.302 46.3685 457.962 47.7084Z" fill="white"></path> <path d="M126 78.1647H137.418L162.849 0H151.345L126 78.1647Z" fill="#FF710B"></path> <path d="M280.514 105.473H278.978C279.014 106.295 279.228 107.028 279.621 107.671C280.014 108.314 280.586 108.796 281.318 109.154C282.033 109.511 282.891 109.672 283.873 109.672C284.731 109.672 285.499 109.529 286.178 109.207C286.857 108.903 287.375 108.475 287.75 107.903C288.125 107.349 288.322 106.706 288.322 105.991C288.322 104.901 287.947 104.115 287.196 103.615C286.446 103.115 285.446 102.757 284.195 102.543C283.409 102.418 282.783 102.293 282.337 102.15C281.872 102.007 281.515 101.811 281.229 101.543C280.943 101.275 280.8 100.899 280.8 100.417C280.8 99.7738 281.033 99.2557 281.533 98.8984C282.015 98.5411 282.676 98.3445 283.516 98.3445C284.338 98.3445 285.035 98.5768 285.606 99.0056C286.16 99.4522 286.482 100.042 286.589 100.756H288.125C288.072 100.006 287.857 99.345 287.464 98.7733C287.071 98.2016 286.535 97.7371 285.856 97.4155C285.178 97.0939 284.391 96.9331 283.516 96.9331C282.676 96.9331 281.926 97.0939 281.283 97.3798C280.64 97.6835 280.139 98.1123 279.782 98.6483C279.425 99.1842 279.246 99.8096 279.246 100.506C279.246 101.614 279.603 102.4 280.354 102.883C281.086 103.383 282.087 103.722 283.337 103.937C284.123 104.08 284.731 104.205 285.195 104.348C285.66 104.491 286.035 104.687 286.321 104.973C286.607 105.259 286.768 105.652 286.768 106.134C286.768 106.813 286.5 107.331 285.964 107.706C285.428 108.082 284.749 108.26 283.891 108.26C282.926 108.26 282.14 108.01 281.533 107.51C280.908 107.01 280.568 106.331 280.514 105.473Z" fill="white"></path> <path d="M291.921 109.082C292.6 109.475 293.386 109.672 294.279 109.672C295.154 109.672 295.941 109.475 296.619 109.082C297.298 108.689 297.834 108.153 298.227 107.438C298.603 106.742 298.799 105.938 298.799 105.009C298.799 104.097 298.603 103.293 298.227 102.579C297.834 101.882 297.298 101.328 296.619 100.935C295.941 100.542 295.154 100.346 294.279 100.346C293.386 100.346 292.6 100.542 291.921 100.935C291.242 101.328 290.706 101.882 290.331 102.579C289.937 103.293 289.759 104.097 289.759 105.009C289.759 105.938 289.937 106.742 290.331 107.438C290.706 108.153 291.242 108.689 291.921 109.082ZM295.851 107.939C295.387 108.225 294.869 108.367 294.279 108.367C293.672 108.367 293.153 108.225 292.689 107.939C292.224 107.653 291.885 107.26 291.635 106.742C291.385 106.241 291.26 105.652 291.26 105.009C291.26 104.365 291.385 103.794 291.635 103.276C291.885 102.775 292.224 102.364 292.689 102.079C293.153 101.793 293.672 101.65 294.279 101.65C294.869 101.65 295.387 101.793 295.851 102.079C296.316 102.364 296.673 102.775 296.923 103.276C297.173 103.794 297.298 104.365 297.298 105.009C297.298 105.652 297.173 106.241 296.923 106.742C296.673 107.26 296.316 107.653 295.851 107.939Z" fill="white"></path> <path d="M300.982 100.453H299.338V101.793H300.982V109.565H302.447V101.793H305.02V100.453H302.447V99.3986C302.447 99.0413 302.518 98.7912 302.679 98.6304C302.822 98.4875 303.09 98.3981 303.447 98.3981H305.038V97.0582H303.358C302.518 97.0582 301.911 97.2547 301.536 97.6478C301.161 98.0408 300.982 98.6304 300.982 99.4344V100.453Z" fill="white"></path> <path d="M306.01 97.8979V107.188C306.01 108.01 306.189 108.618 306.546 108.993C306.903 109.386 307.529 109.565 308.386 109.565H310.066V108.225H308.476C308.1 108.225 307.832 108.153 307.689 107.992C307.546 107.832 307.475 107.564 307.475 107.17V101.793H309.78V100.453H307.475V97.8979H306.01Z" fill="white"></path> <path d="M310.247 100.453L313.195 109.582L314.803 109.565L317.09 102.793L319.287 109.565H320.895L323.933 100.453H322.45L320.073 107.867L317.804 100.453H316.447L314.053 107.867L311.784 100.453H310.247Z" fill="white"></path> <path d="M333.253 108.225H332.807C332.396 108.225 332.199 108.01 332.199 107.564V103.633C332.199 102.579 331.878 101.775 331.234 101.203C330.591 100.631 329.698 100.346 328.537 100.346C327.429 100.346 326.536 100.596 325.857 101.096C325.178 101.596 324.785 102.293 324.678 103.186H326.143C326.232 102.722 326.482 102.364 326.893 102.079C327.304 101.793 327.822 101.65 328.465 101.65C329.18 101.65 329.734 101.828 330.127 102.15C330.52 102.49 330.734 102.954 330.734 103.544V104.169H328.054C326.857 104.169 325.946 104.419 325.321 104.901C324.695 105.402 324.392 106.098 324.392 107.01C324.392 107.832 324.695 108.493 325.303 108.957C325.91 109.439 326.732 109.672 327.751 109.672C329.073 109.672 330.091 109.171 330.806 108.153C330.806 108.618 330.949 108.975 331.199 109.207C331.449 109.457 331.86 109.565 332.449 109.565H333.253V108.225ZM330.734 105.402V105.848C330.734 106.634 330.466 107.26 329.966 107.724C329.448 108.189 328.751 108.421 327.858 108.421C327.25 108.421 326.768 108.296 326.411 108.01C326.053 107.742 325.875 107.385 325.875 106.92C325.875 105.92 326.553 105.402 327.911 105.402H330.734Z" fill="white"></path> <path d="M339.007 100.453H338.596C337.846 100.453 337.274 100.578 336.863 100.828C336.434 101.078 336.095 101.418 335.845 101.828L335.648 100.453H334.38V109.565H335.845V104.919C335.845 104.062 336.023 103.347 336.398 102.757C336.774 102.186 337.399 101.882 338.274 101.882H339.007V100.453Z" fill="white"></path> <path d="M340.038 102.561C339.68 103.276 339.502 104.08 339.502 105.009C339.502 105.938 339.68 106.742 340.055 107.456C340.431 108.171 340.967 108.707 341.646 109.1C342.324 109.493 343.111 109.672 344.022 109.672C345.058 109.672 345.933 109.386 346.648 108.796C347.363 108.207 347.809 107.438 347.988 106.509H346.505C346.344 107.099 346.041 107.564 345.576 107.885C345.112 108.207 344.558 108.367 343.915 108.367C343.057 108.367 342.378 108.099 341.86 107.564C341.324 107.028 341.056 106.313 341.038 105.42V105.294H348.113C348.131 105.009 348.149 104.812 348.149 104.669C348.113 103.794 347.917 103.025 347.559 102.364C347.184 101.721 346.684 101.221 346.041 100.864C345.397 100.524 344.647 100.346 343.825 100.346C342.968 100.346 342.217 100.542 341.574 100.935C340.913 101.328 340.395 101.864 340.038 102.561ZM346.63 104.08H341.127C341.199 103.365 341.485 102.775 342.021 102.311C342.539 101.864 343.146 101.632 343.843 101.632C344.611 101.632 345.255 101.846 345.755 102.275C346.255 102.704 346.559 103.311 346.63 104.08Z" fill="white"></path> <path d="M354.979 99.9882C354.479 100.953 354.246 102.061 354.246 103.311C354.246 104.58 354.479 105.688 354.979 106.652C355.461 107.617 356.158 108.35 357.069 108.886C357.963 109.422 359.017 109.672 360.214 109.672C361.607 109.672 362.751 109.297 363.68 108.546C364.609 107.796 365.181 106.777 365.431 105.473H363.876C363.626 106.366 363.197 107.045 362.554 107.528C361.911 108.01 361.107 108.242 360.142 108.242C359.285 108.242 358.516 108.046 357.873 107.617C357.212 107.206 356.712 106.617 356.355 105.866C355.997 105.116 355.837 104.276 355.837 103.311C355.837 102.347 355.997 101.507 356.355 100.756C356.712 100.006 357.212 99.4344 357.873 99.0056C358.516 98.5947 359.285 98.3803 360.142 98.3803C361.089 98.3803 361.893 98.6304 362.554 99.1128C363.215 99.613 363.662 100.292 363.894 101.15H365.449C365.198 99.8632 364.609 98.8269 363.68 98.0765C362.751 97.3262 361.589 96.951 360.214 96.951C359.017 96.951 357.963 97.219 357.069 97.755C356.158 98.2909 355.461 99.0235 354.979 99.9882Z" fill="white"></path> <path d="M371.808 100.453H371.397C370.647 100.453 370.075 100.578 369.664 100.828C369.235 101.078 368.896 101.418 368.646 101.828L368.449 100.453H367.181V109.565H368.646V104.919C368.646 104.062 368.825 103.347 369.2 102.757C369.575 102.186 370.2 101.882 371.076 101.882H371.808V100.453Z" fill="white"></path> <path d="M381.234 108.225H380.787C380.376 108.225 380.18 108.01 380.18 107.564V103.633C380.18 102.579 379.858 101.775 379.215 101.203C378.572 100.631 377.679 100.346 376.517 100.346C375.41 100.346 374.516 100.596 373.837 101.096C373.158 101.596 372.765 102.293 372.658 103.186H374.123C374.212 102.722 374.463 102.364 374.874 102.079C375.284 101.793 375.803 101.65 376.446 101.65C377.16 101.65 377.714 101.828 378.107 102.15C378.5 102.49 378.715 102.954 378.715 103.544V104.169H376.035C374.838 104.169 373.927 104.419 373.301 104.901C372.676 105.402 372.372 106.098 372.372 107.01C372.372 107.832 372.676 108.493 373.283 108.957C373.891 109.439 374.713 109.672 375.731 109.672C377.053 109.672 378.072 109.171 378.786 108.153C378.786 108.618 378.929 108.975 379.179 109.207C379.429 109.457 379.84 109.565 380.43 109.565H381.234V108.225ZM378.715 105.402V105.848C378.715 106.634 378.447 107.26 377.947 107.724C377.428 108.189 376.732 108.421 375.838 108.421C375.231 108.421 374.748 108.296 374.391 108.01C374.034 107.742 373.855 107.385 373.855 106.92C373.855 105.92 374.534 105.402 375.892 105.402H378.715Z" fill="white"></path> <path d="M382.968 100.453H381.324V101.793H382.968V109.565H384.433V101.793H387.005V100.453H384.433V99.3986C384.433 99.0413 384.504 98.7912 384.665 98.6304C384.808 98.4875 385.076 98.3981 385.433 98.3981H387.023V97.0582H385.344C384.504 97.0582 383.897 97.2547 383.521 97.6478C383.146 98.0408 382.968 98.6304 382.968 99.4344V100.453Z" fill="white"></path> <path d="M387.996 97.8979V107.188C387.996 108.01 388.174 108.618 388.532 108.993C388.889 109.386 389.514 109.565 390.372 109.565H392.051V108.225H390.461C390.086 108.225 389.818 108.153 389.675 107.992C389.532 107.832 389.461 107.564 389.461 107.17V101.793H391.765V100.453H389.461V97.8979H387.996Z" fill="white"></path> <path d="M394.234 106.563H392.769C392.769 107.546 393.144 108.314 393.859 108.85C394.573 109.404 395.538 109.672 396.735 109.672C397.396 109.672 398.004 109.565 398.557 109.332C399.093 109.118 399.54 108.796 399.862 108.367C400.183 107.957 400.344 107.474 400.344 106.92C400.344 106.295 400.183 105.795 399.862 105.42C399.54 105.062 399.129 104.794 398.611 104.616C398.093 104.455 397.432 104.33 396.646 104.223C396.074 104.151 395.645 104.097 395.359 104.026C395.074 103.972 394.859 103.865 394.68 103.687C394.502 103.526 394.412 103.293 394.412 102.972C394.412 102.561 394.591 102.222 394.984 101.971C395.359 101.721 395.86 101.578 396.485 101.578C397.092 101.578 397.593 101.739 398.004 102.043C398.397 102.364 398.629 102.757 398.7 103.222H400.165C400.094 102.293 399.719 101.578 399.04 101.078C398.361 100.578 397.503 100.328 396.431 100.328C395.77 100.328 395.181 100.453 394.663 100.685C394.127 100.917 393.716 101.239 393.412 101.65C393.108 102.079 392.965 102.543 392.965 103.079C392.965 103.687 393.108 104.151 393.43 104.491C393.734 104.83 394.144 105.08 394.645 105.223C395.145 105.384 395.788 105.509 396.574 105.598C397.128 105.67 397.557 105.741 397.861 105.813C398.164 105.884 398.415 106.027 398.611 106.206C398.79 106.402 398.897 106.67 398.897 107.028C398.897 107.456 398.683 107.796 398.289 108.046C397.896 108.296 397.378 108.421 396.735 108.421C396.003 108.421 395.413 108.26 394.948 107.903C394.484 107.564 394.252 107.117 394.234 106.563Z" fill="white"></path> <path d="M414.655 101.31C414.012 100.667 413.19 100.346 412.172 100.346C410.707 100.346 409.653 100.935 409.01 102.079C408.759 101.507 408.366 101.078 407.866 100.792C407.366 100.506 406.776 100.346 406.133 100.346C405.008 100.346 404.114 100.81 403.471 101.703L403.275 100.453H402.006V109.565H403.471V104.759C403.471 103.847 403.685 103.115 404.114 102.543C404.543 101.971 405.133 101.686 405.883 101.686C406.58 101.686 407.116 101.918 407.509 102.382C407.884 102.847 408.081 103.526 408.081 104.401V109.565H409.546V104.687C409.546 103.758 409.76 103.025 410.189 102.49C410.618 101.954 411.225 101.686 411.993 101.686C412.672 101.686 413.208 101.918 413.583 102.382C413.959 102.847 414.155 103.526 414.155 104.401V109.565H415.62V104.312C415.62 102.954 415.299 101.954 414.655 101.31Z" fill="white"></path> <path d="M426.022 108.225H425.575C425.164 108.225 424.967 108.01 424.967 107.564V103.633C424.967 102.579 424.646 101.775 424.003 101.203C423.36 100.631 422.466 100.346 421.305 100.346C420.197 100.346 419.304 100.596 418.625 101.096C417.946 101.596 417.553 102.293 417.446 103.186H418.911C419 102.722 419.25 102.364 419.661 102.079C420.072 101.793 420.59 101.65 421.233 101.65C421.948 101.65 422.502 101.828 422.895 102.15C423.288 102.49 423.502 102.954 423.502 103.544V104.169H420.823C419.625 104.169 418.714 104.419 418.089 104.901C417.464 105.402 417.16 106.098 417.16 107.01C417.16 107.832 417.464 108.493 418.071 108.957C418.679 109.439 419.5 109.672 420.519 109.672C421.841 109.672 422.859 109.171 423.574 108.153C423.574 108.618 423.717 108.975 423.967 109.207C424.217 109.457 424.628 109.565 425.218 109.565H426.022V108.225ZM423.502 105.402V105.848C423.502 106.634 423.234 107.26 422.734 107.724C422.216 108.189 421.519 108.421 420.626 108.421C420.019 108.421 419.536 108.296 419.179 108.01C418.822 107.742 418.643 107.385 418.643 106.92C418.643 105.92 419.322 105.402 420.68 105.402H423.502Z" fill="white"></path> <path d="M434.277 101.346C433.598 100.685 432.722 100.346 431.614 100.346C430.292 100.346 429.292 100.792 428.613 101.686L428.416 100.453H427.148V109.565H428.613V105.009C428.613 103.99 428.845 103.186 429.345 102.579C429.828 101.989 430.507 101.686 431.364 101.686C432.15 101.686 432.758 101.936 433.187 102.436C433.615 102.936 433.83 103.651 433.83 104.58V109.565H435.295V104.491C435.295 103.061 434.955 102.025 434.277 101.346Z" fill="white"></path> <path d="M438.306 106.563H436.841C436.841 107.546 437.216 108.314 437.931 108.85C438.646 109.404 439.61 109.672 440.807 109.672C441.468 109.672 442.076 109.565 442.63 109.332C443.166 109.118 443.612 108.796 443.934 108.367C444.256 107.957 444.416 107.474 444.416 106.92C444.416 106.295 444.256 105.795 443.934 105.42C443.612 105.062 443.202 104.794 442.683 104.616C442.165 104.455 441.504 104.33 440.718 104.223C440.146 104.151 439.718 104.097 439.432 104.026C439.146 103.972 438.931 103.865 438.753 103.687C438.574 103.526 438.485 103.293 438.485 102.972C438.485 102.561 438.663 102.222 439.057 101.971C439.432 101.721 439.932 101.578 440.557 101.578C441.165 101.578 441.665 101.739 442.076 102.043C442.469 102.364 442.701 102.757 442.773 103.222H444.238C444.166 102.293 443.791 101.578 443.112 101.078C442.433 100.578 441.576 100.328 440.504 100.328C439.843 100.328 439.253 100.453 438.735 100.685C438.199 100.917 437.788 101.239 437.484 101.65C437.181 102.079 437.038 102.543 437.038 103.079C437.038 103.687 437.181 104.151 437.502 104.491C437.806 104.83 438.217 105.08 438.717 105.223C439.217 105.384 439.861 105.509 440.647 105.598C441.2 105.67 441.629 105.741 441.933 105.813C442.237 105.884 442.487 106.027 442.683 106.206C442.862 106.402 442.969 106.67 442.969 107.028C442.969 107.456 442.755 107.796 442.362 108.046C441.969 108.296 441.451 108.421 440.807 108.421C440.075 108.421 439.485 108.26 439.021 107.903C438.556 107.564 438.324 107.117 438.306 106.563Z" fill="white"></path> <path d="M453.225 101.346C452.546 100.685 451.653 100.346 450.545 100.346C449.83 100.346 449.223 100.506 448.723 100.792C448.222 101.096 447.829 101.489 447.543 101.954V97.0582H446.078V109.565H447.543V105.009C447.543 103.99 447.776 103.186 448.276 102.579C448.776 101.989 449.437 101.686 450.295 101.686C451.081 101.686 451.706 101.936 452.135 102.436C452.564 102.936 452.778 103.651 452.778 104.58V109.565H454.243V104.491C454.243 103.061 453.904 102.025 453.225 101.346Z" fill="white"></path> <path d="M457.522 97.2011C457.343 97.0224 457.111 96.9331 456.843 96.9331C456.557 96.9331 456.343 97.0224 456.164 97.2011C455.986 97.3798 455.896 97.612 455.896 97.88C455.896 98.1659 455.986 98.3803 456.164 98.5589C456.343 98.7376 456.557 98.8269 456.843 98.8269C457.111 98.8269 457.343 98.7376 457.522 98.5589C457.701 98.3803 457.79 98.1659 457.79 97.88C457.79 97.612 457.701 97.3798 457.522 97.2011ZM456.111 100.453V109.565H457.576V100.453H456.111Z" fill="white"></path> <path d="M466.426 100.899C465.764 100.542 465.014 100.346 464.174 100.346C462.852 100.346 461.798 100.882 461.048 101.918L460.851 100.453H459.583V113.138H461.048V108.171C461.334 108.635 461.745 109.011 462.281 109.279C462.799 109.547 463.424 109.672 464.174 109.672C464.996 109.672 465.747 109.475 466.426 109.082C467.087 108.689 467.605 108.153 467.98 107.438C468.355 106.742 468.552 105.938 468.552 105.009C468.552 104.044 468.355 103.222 467.98 102.507C467.605 101.811 467.087 101.275 466.426 100.899ZM466.211 107.438C465.657 108.064 464.925 108.367 464.031 108.367C463.442 108.367 462.924 108.225 462.459 107.939C461.995 107.653 461.655 107.26 461.405 106.742C461.155 106.224 461.03 105.634 461.03 104.973C461.03 104.33 461.155 103.758 461.405 103.258C461.655 102.757 461.995 102.364 462.459 102.079C462.924 101.793 463.442 101.65 464.031 101.65C464.925 101.65 465.657 101.971 466.211 102.597C466.765 103.222 467.051 104.026 467.051 105.009C467.051 106.009 466.765 106.813 466.211 107.438Z" fill="white"></path> </svg>
